<svg width="40" height="40" viewBox="0 0 40 40" fill="none" xmlns="http://www.w3.org/2000/svg">
<path d="M20.0453 0C31.0659 0 40 8.93415 40 19.9547V20.0453C40 31.0659 31.0659 40 20.0453 40H19.9547C8.93415 40 0 31.0659 0 20.0453V19.9547C0 8.93415 8.93415 0 19.9547 0H20.0453ZM13.8109 8.1375C10.3915 8.1375 7.60938 10.9197 7.60938 14.3391V25.6625C7.6095 29.0818 10.3916 31.8641 13.8109 31.8641H26.1875C29.6068 31.8641 32.3889 29.0818 32.3891 25.6625V14.3391C32.3891 10.9197 29.6069 8.1375 26.1875 8.1375H13.8109ZM26.1875 10.325C28.4003 10.325 30.2016 12.1263 30.2016 14.3391V25.6625C30.2014 27.8752 28.4002 29.6766 26.1875 29.6766H13.8109C11.5982 29.6766 9.797 27.8752 9.79688 25.6625V14.3391C9.79688 12.1263 11.5981 10.325 13.8109 10.325H26.1875ZM20 14.2312C16.8191 14.2312 14.2317 16.8176 14.2312 19.9984C14.2312 23.1796 16.8188 25.7672 20 25.7672C23.1795 25.7669 25.7672 23.1794 25.7672 19.9984C25.7668 16.8178 23.1806 14.2316 20 14.2312ZM20 16.4203C21.9741 16.4206 23.5794 18.0259 23.5797 20C23.5797 21.9744 21.9743 23.5809 20 23.5813C18.0254 23.5813 16.4188 21.9746 16.4188 20C16.4191 18.0257 18.0256 16.4203 20 16.4203ZM26.3016 12.0547C25.4439 12.0547 24.7469 12.7517 24.7469 13.6094C24.7471 14.4668 25.4441 15.1625 26.3016 15.1625C27.1574 15.1622 27.8545 14.4667 27.8547 13.6094C27.8547 12.7519 27.159 12.055 26.3016 12.0547Z" fill="#353535"/>
</svg>
