<svg width="40" height="40" viewBox="0 0 40 40" fill="none" xmlns="http://www.w3.org/2000/svg">
<path d="M20 0C31.0452 0 39.9996 8.95453 40 20H39.9969C39.9969 30.1013 32.5096 38.4527 22.7828 39.8078C21.8734 39.9339 20.9429 40 19.9984 40C18.9083 40 17.8378 39.9134 16.7953 39.7453C7.27317 38.2122 0 29.9541 0 20C0.00037631 8.95453 8.95483 2.42815e-07 20 0ZM17.3344 21.1547L8.05313 31.1812H10.1422L18.2688 22.4031L24.8344 31.1812H31.9438L22.2016 18.1547L30.8406 8.82188H28.7516L21.2672 16.9062L15.2203 8.82188H8.11094L17.3344 21.1547ZM28.8687 29.6422H25.6031L11.1828 10.3609H14.4469L28.8687 29.6422Z" fill="#353535"/>
</svg>
