<svg width="40" height="40" viewBox="0 0 40 40" fill="none" xmlns="http://www.w3.org/2000/svg">
<path d="M20 0C31.0457 0 40 8.9543 40 20C40 31.0457 31.0457 40 20 40C8.95431 40 0 31.0457 0 20C0 8.95431 8.95431 9.07141e-06 20 0ZM19.9172 11.0719C17.5089 11.0747 15.1005 11.0753 12.6922 11.0781C11.6859 11.0781 10.7065 11.0003 9.77188 11.4359C8.96965 11.8097 8.3421 12.5215 7.96406 13.3125C7.43991 14.4128 7.33043 15.6596 7.26719 16.8766C7.15055 19.0927 7.16245 21.3149 7.30156 23.5297C7.40416 25.1459 7.66468 26.9324 8.91406 27.9625C10.0215 28.8745 11.5841 28.9189 13.0203 28.9203C17.5793 28.9245 22.1396 28.93 26.7 28.9328C27.2846 28.9342 27.8948 28.9224 28.4906 28.8578C29.6627 28.7313 30.7795 28.395 31.5328 27.5266C32.293 26.6512 32.4894 25.4333 32.6047 24.2797C32.8858 21.4802 32.8819 18.6528 32.5938 15.8547C32.4363 14.3356 32.098 12.6559 30.8516 11.7734C29.8862 11.0894 28.6173 11.0642 27.4328 11.0656C24.9284 11.0656 22.4216 11.0705 19.9172 11.0719ZM24.0781 19.9984L17.2812 23.9234V16.075L24.0781 19.9984Z" fill="#353535"/>
</svg>
